<svg xmlns="http://www.w3.org/2000/svg" version="1.1" xmlns:xlink="http://www.w3.org/1999/xlink" xmlns:svgjs="http://svgjs.dev/svgjs" width="1000" height="386" viewBox="0 0 1000 386"><g transform="matrix(1,0,0,1,-0.6060606060606233,-0.30008461081402515)"><svg viewBox="0 0 396 153" data-background-color="#ffffff" preserveAspectRatio="xMidYMid meet" height="386" width="1000" xmlns="http://www.w3.org/2000/svg" xmlns:xlink="http://www.w3.org/1999/xlink"><g id="tight-bounds" transform="matrix(1,0,0,1,0.2400000000000091,0.1189454545454538)"><svg viewBox="0 0 395.52 152.7621090909091" height="152.7621090909091" width="395.52"><g><svg viewBox="0 0 395.52 152.7621090909091" height="152.7621090909091" width="395.52"><g><svg viewBox="0 0 395.52 152.7621090909091" height="152.7621090909091" width="395.52"><g id="textblocktransform"><svg viewBox="0 0 395.52 152.7621090909091" height="152.7621090909091" width="395.52" id="textblock"><g><svg viewBox="0 0 395.52 152.7621090909091" height="152.7621090909091" width="395.52"><rect width="395.52" height="152.7621090909091" x="0" y="0" opacity="1" fill="#000000" data-fill-palette-color="tertiary"></rect><g transform="matrix(1,0,0,1,23.607599999999998,23.607599999999998)"><svg width="348.3048" viewBox="3.4000000953674316 -35.5 117.1500015258789 35.5" height="105.5469090909091" data-palette-color="#ffffff"><path d="M39.6 0L31.4 0 31.4-21.15 23.75-5.75 19.25-5.75 11.6-21.15 11.6 0 3.4 0 3.4-35.5 12.3-35.5 21.5-16.95 30.75-35.5 39.6-35.5 39.6 0ZM70.85 0L54.6-20.3 54.6 0 46.4 0 46.4-35.5 52.9-35.5 69.35-14.6 69.35-35.5 77.55-35.5 77.55 0 70.85 0ZM120.55 0L112.35 0 112.35-21.15 104.7-5.75 100.2-5.75 92.55-21.15 92.55 0 84.35 0 84.35-35.5 93.25-35.5 102.45-16.95 111.7-35.5 120.55-35.5 120.55 0Z" opacity="1" transform="matrix(1,0,0,1,0,0)" fill="#ffffff" class="wordmark-text-0" data-fill-palette-color="quaternary" id="text-0"></path></svg></g></svg></g></svg></g></svg></g></svg></g><defs></defs></svg><rect width="395.52" height="152.7621090909091" fill="none" stroke="none" visibility="hidden"></rect></g></svg></g></svg>